<?xml version="1.0" encoding="UTF-8"?>
<svg version="1.1" xmlns="http://www.w3.org/2000/svg" width="77" height="77">
<path d="M0 0 C9.25801664 7.58853823 14.32463355 15.61742927 15.6875 27.625 C16.18912749 38.28458415 13.4806788 46.99179126 6.75 55.25 C6.23566406 55.88808594 5.72132812 56.52617188 5.19140625 57.18359375 C-0.37932509 63.39556035 -9.03724539 67.85597518 -17.40234375 68.48828125 C-28.66937421 68.70920342 -37.81889828 67.60269264 -46.6875 59.9375 C-55.58122605 51.18630161 -59.3018772 43.47378197 -59.6875 30.8125 C-59.42131925 19.79927146 -56.02495983 11.12902239 -48.25 3.25 C-34.27200855 -8.82510522 -15.45820647 -10.85931587 0 0 Z M-39.25 14.25 C-34.3 14.25 -29.35 14.25 -24.25 14.25 C-24.25 18.21 -24.25 22.17 -24.25 26.25 C-25.24 26.25 -26.23 26.25 -27.25 26.25 C-27.25 27.24 -27.25 28.23 -27.25 29.25 C-26.445625 29.064375 -25.64125 28.87875 -24.8125 28.6875 C-23.5440625 28.4709375 -23.5440625 28.4709375 -22.25 28.25 C-21.92 28.58 -21.59 28.91 -21.25 29.25 C-19.54227642 29.33713831 -17.83101351 29.35700007 -16.12109375 29.34765625 C-15.08662109 29.34443359 -14.05214844 29.34121094 -12.98632812 29.33789062 C-11.89771484 29.32951172 -10.80910156 29.32113281 -9.6875 29.3125 C-8.59501953 29.30798828 -7.50253906 29.30347656 -6.37695312 29.29882812 C-3.66791505 29.28699826 -0.95898401 29.27051543 1.75 29.25 C1.62625 27.97125 1.5025 26.6925 1.375 25.375 C1.30539063 24.65570313 1.23578125 23.93640625 1.1640625 23.1953125 C0.88625251 21.02331755 0.88625251 21.02331755 -1.25 19.25 C-1.91 21.56 -2.57 23.87 -3.25 26.25 C-6.70208918 27.13309258 -8.72296338 27.43331708 -12.125 26.25 C-14.25 24.25 -14.25 24.25 -14.6875 20.6875 C-14.25 17.25 -14.25 17.25 -12.25 15.25 C-10.26178687 14.85235737 -8.26055661 14.51224651 -6.25 14.25 C-7.25560636 11.60542194 -7.91707624 10.44719799 -10.38671875 8.984375 C-21.91750845 4.53451435 -30.40801261 5.40801261 -39.25 14.25 Z M-41.25 15.25 C-41.889375 16.3225 -42.52875 17.395 -43.1875 18.5 C-43.54714844 19.10328125 -43.90679687 19.7065625 -44.27734375 20.328125 C-47.04344933 25.79368301 -47.04106163 31.94467242 -45.63671875 37.8125 C-42.86948404 45.80944261 -38.0875905 50.04693879 -30.875 54.1875 C-24.27771745 56.12118626 -17.58674709 56.16864175 -11.19921875 53.421875 C-4.92738153 49.65123138 -0.27620798 44.27418767 1.75 37.25 C1.56627212 34.90518954 1.56627212 34.90518954 0.75 33.25 C0.09 34.24 -0.57 35.23 -1.25 36.25 C-4.375 36.9375 -4.375 36.9375 -7.25 37.25 C-7.25 36.59 -7.25 35.93 -7.25 35.25 C-11.54 35.25 -15.83 35.25 -20.25 35.25 C-16.28425752 39.51232316 -16.28425752 39.51232316 -11.25 42.25 C-10.26 42.25 -9.27 42.25 -8.25 42.25 C-8.5078125 44.12109375 -8.5078125 44.12109375 -9.25 46.25 C-10.9921875 47.41015625 -10.9921875 47.41015625 -13.125 48.3125 C-15.50366752 49.33506371 -17.01830747 49.99129668 -18.7578125 51.93359375 C-20.25 53.25 -20.25 53.25 -22.203125 53.16015625 C-24.7007535 52.04956953 -26.1259713 50.66964574 -28 48.6875 C-28.92039062 47.72650391 -28.92039062 47.72650391 -29.859375 46.74609375 C-30.31828125 46.25238281 -30.7771875 45.75867188 -31.25 45.25 C-30.63511719 44.54423828 -30.63511719 44.54423828 -30.0078125 43.82421875 C-29.46898438 43.20160156 -28.93015625 42.57898438 -28.375 41.9375 C-27.84132813 41.32261719 -27.30765625 40.70773438 -26.7578125 40.07421875 C-25.0859553 38.11501788 -25.0859553 38.11501788 -23.25 35.25 C-26.88 35.25 -30.51 35.25 -34.25 35.25 C-34.58 33.93 -34.91 32.61 -35.25 31.25 C-35.25 32.57 -35.25 33.89 -35.25 35.25 C-37.56 35.25 -39.87 35.25 -42.25 35.25 C-42.25 32.94 -42.25 30.63 -42.25 28.25 C-40.6 28.25 -38.95 28.25 -37.25 28.25 C-37.25 27.59 -37.25 26.93 -37.25 26.25 C-38.24 26.25 -39.23 26.25 -40.25 26.25 C-40.25 22.62 -40.25 18.99 -40.25 15.25 C-40.58 15.25 -40.91 15.25 -41.25 15.25 Z M-7.25 17.25 C-6.25 19.25 -6.25 19.25 -6.25 19.25 Z M-2.25 17.25 C-1.25 19.25 -1.25 19.25 -1.25 19.25 Z M1.75 29.25 C2.75 33.25 2.75 33.25 2.75 33.25 Z M-22.25 43.25 C-22.25 44.24 -22.25 45.23 -22.25 46.25 C-21.59 45.59 -20.93 44.93 -20.25 44.25 C-20.91 43.92 -21.57 43.59 -22.25 43.25 Z " fill="#428E5A" transform="translate(60.25,7.75)"/>
<path d="M0 0 C0.99 0 1.98 0 3 0 C3 0.66 3 1.32 3 2 C4.65 2 6.3 2 8 2 C8.33 1.34 8.66 0.68 9 0 C9 0.66 9 1.32 9 2 C9.99 2 10.98 2 12 2 C12 2.66 12 3.32 12 4 C14.64 4 17.28 4 20 4 C20.495 4.99 20.495 4.99 21 6 C21.66 6 22.32 6 23 6 C23.268125 6.5775 23.53625 7.155 23.8125 7.75 C24.95053246 10.05747896 24.95053246 10.05747896 26.625 12.125 C28 14 28 14 28 16 C29.32 16.33 30.64 16.66 32 17 C31.34 17.66 30.68 18.32 30 19 C30.66 19.33 31.32 19.66 32 20 C32.625 23.0625 32.625 23.0625 33 26 C32.01 26.33 31.02 26.66 30 27 C29.34 26.67 28.68 26.34 28 26 C28.05800781 26.82242188 28.11601563 27.64484375 28.17578125 28.4921875 C28.57202081 38.29628626 26.68330349 45.0083902 20.125 52.375 C17.7164877 54.73153579 17.7164877 54.73153579 18.1875 57.25 C18.455625 57.8275 18.72375 58.405 19 59 C19 59.66 19 60.32 19 61 C16.29350731 62.69155793 13.9338867 63.2150566 10.8125 63.5625 C7.21809061 63.57461534 7.21809061 63.57461534 6 65 C-0.88477936 65.71033438 -6.63464717 64.58304173 -13 62 C-13 61.01 -13 60.02 -13 59 C-13.99 59 -14.98 59 -16 59 C-16 56.66666667 -16 54.33333333 -16 52 C-16.91787929 50.55679356 -17.88401296 49.14402005 -18.875 47.75 C-23.38732336 41.05601086 -25.1410675 35.07067536 -24 27 C-21.73260303 20.20793141 -17.89008227 14.15894698 -12 10 C-8.08685939 8.06794812 -4.10920768 6.46420044 0 5 C0 3.35 0 1.7 0 0 Z M-15 16 C-10.05 16 -5.1 16 0 16 C0 19.96 0 23.92 0 28 C-0.99 28 -1.98 28 -3 28 C-3 28.99 -3 29.98 -3 31 C-2.195625 30.814375 -1.39125 30.62875 -0.5625 30.4375 C0.7059375 30.2209375 0.7059375 30.2209375 2 30 C2.33 30.33 2.66 30.66 3 31 C4.70772358 31.08713831 6.41898649 31.10700007 8.12890625 31.09765625 C9.16337891 31.09443359 10.19785156 31.09121094 11.26367188 31.08789062 C12.35228516 31.07951172 13.44089844 31.07113281 14.5625 31.0625 C15.65498047 31.05798828 16.74746094 31.05347656 17.87304688 31.04882812 C20.58208495 31.03699826 23.29101599 31.02051543 26 31 C25.87625 29.72125 25.7525 28.4425 25.625 27.125 C25.55539063 26.40570313 25.48578125 25.68640625 25.4140625 24.9453125 C25.13625251 22.77331755 25.13625251 22.77331755 23 21 C22.34 23.31 21.68 25.62 21 28 C17.54791082 28.88309258 15.52703662 29.18331708 12.125 28 C10 26 10 26 9.5625 22.4375 C10 19 10 19 12 17 C13.98821313 16.60235737 15.98944339 16.26224651 18 16 C16.99439364 13.35542194 16.33292376 12.19719799 13.86328125 10.734375 C2.33249155 6.28451435 -6.15801261 7.15801261 -15 16 Z M-17 17 C-17.639375 18.0725 -18.27875 19.145 -18.9375 20.25 C-19.29714844 20.85328125 -19.65679687 21.4565625 -20.02734375 22.078125 C-22.79344933 27.54368301 -22.79106163 33.69467242 -21.38671875 39.5625 C-18.61948404 47.55944261 -13.8375905 51.79693879 -6.625 55.9375 C-0.02771745 57.87118626 6.66325291 57.91864175 13.05078125 55.171875 C19.32261847 51.40123138 23.97379202 46.02418767 26 39 C25.81627212 36.65518954 25.81627212 36.65518954 25 35 C24.34 35.99 23.68 36.98 23 38 C19.875 38.6875 19.875 38.6875 17 39 C17 38.34 17 37.68 17 37 C12.71 37 8.42 37 4 37 C7.96574248 41.26232316 7.96574248 41.26232316 13 44 C13.99 44 14.98 44 16 44 C15.7421875 45.87109375 15.7421875 45.87109375 15 48 C13.2578125 49.16015625 13.2578125 49.16015625 11.125 50.0625 C8.74633248 51.08506371 7.23169253 51.74129668 5.4921875 53.68359375 C4 55 4 55 2.046875 54.91015625 C-0.4507535 53.79956953 -1.8759713 52.41964574 -3.75 50.4375 C-4.67039062 49.47650391 -4.67039062 49.47650391 -5.609375 48.49609375 C-6.06828125 48.00238281 -6.5271875 47.50867188 -7 47 C-6.38511719 46.29423828 -6.38511719 46.29423828 -5.7578125 45.57421875 C-5.21898438 44.95160156 -4.68015625 44.32898438 -4.125 43.6875 C-3.59132813 43.07261719 -3.05765625 42.45773438 -2.5078125 41.82421875 C-0.8359553 39.86501788 -0.8359553 39.86501788 1 37 C-2.63 37 -6.26 37 -10 37 C-10.33 35.68 -10.66 34.36 -11 33 C-11 34.32 -11 35.64 -11 37 C-13.31 37 -15.62 37 -18 37 C-18 34.69 -18 32.38 -18 30 C-16.35 30 -14.7 30 -13 30 C-13 29.34 -13 28.68 -13 28 C-13.99 28 -14.98 28 -16 28 C-16 24.37 -16 20.74 -16 17 C-16.33 17 -16.66 17 -17 17 Z M17 19 C18 21 18 21 18 21 Z M22 19 C23 21 23 21 23 21 Z M26 31 C27 35 27 35 27 35 Z M2 45 C2 45.99 2 46.98 2 48 C2.66 47.34 3.32 46.68 4 46 C3.34 45.67 2.68 45.34 2 45 Z " fill="#F7D7DC" transform="translate(36,6)"/>
<path d="M0 0 C5.28 0 10.56 0 16 0 C16 3.96 16 7.92 16 12 C15.01 12 14.02 12 13 12 C13 12.99 13 13.98 13 15 C14.65 14.34 16.3 13.68 18 13 C18.33 13.33 18.66 13.66 19 14 C20.60344438 14.04813341 22.20875342 14.03670951 23.8125 14 C29.92088095 13.93587002 35.9244465 14.40622863 42 15 C41.75 17.875 41.75 17.875 41 21 C38.14088761 23.16898181 36.71556422 23 33 23 C33 22.34 33 21.68 33 21 C29.37 21.33 25.74 21.66 22 22 C25.31633204 24.48724903 28.29373156 26.23109915 32 28 C32 30.25 32 30.25 31 33 C29.06820798 34.23877246 27.12448521 35.12521465 25.0078125 36.0078125 C22.91207982 36.88889723 22.91207982 36.88889723 21.4921875 38.6796875 C20 40 20 40 18.078125 39.94140625 C15.37972107 38.71900898 13.7886038 37.07803399 11.75 34.9375 C10.69039062 33.83728516 10.69039062 33.83728516 9.609375 32.71484375 C9.07828125 32.14894531 8.5471875 31.58304688 8 31 C8.95729916 29.87411986 9.91587895 28.7493285 10.875 27.625 C11.40867187 26.99851562 11.94234375 26.37203125 12.4921875 25.7265625 C13.61432007 24.44163349 14.79371975 23.20628025 16 22 C14.9275 22.020625 13.855 22.04125 12.75 22.0625 C9 22 9 22 7 21.4375 C3.90615639 20.76072171 1.08555121 21.46596229 -2 22 C-2.79953138 18.71303767 -3.09658936 17.28976808 -2 14 C-0.35 14 1.3 14 3 14 C3 13.34 3 12.68 3 12 C2.01 12 1.02 12 0 12 C0 8.04 0 4.08 0 0 Z M18 29 C18 29.99 18 30.98 18 32 C18.66 31.34 19.32 30.68 20 30 C19.34 29.67 18.68 29.34 18 29 Z " fill="#DCCFF0" transform="translate(20,22)"/>
<path d="M0 0 C0.33 0 0.66 0 1 0 C1.07476562 0.67804687 1.14953125 1.35609375 1.2265625 2.0546875 C2.28430437 9.54184071 4.74403689 14.80109721 9 21 C9.66 21.99 10.32 22.98 11 24 C10.34 24 9.68 24 9 24 C9 25.65 9 27.3 9 29 C10.32 28.67 11.64 28.34 13 28 C12.67 29.32 12.34 30.64 12 32 C18.33773468 33.53332291 24.50149789 34.48446121 31 35 C31.495 34.01 31.495 34.01 32 33 C33.32 33.33 34.64 33.66 36 34 C36.495 33.01 36.495 33.01 37 32 C37.99 32 38.98 32 40 32 C40.66 31.01 41.32 30.02 42 29 C42 29.66 42 30.32 42 31 C42.66 31 43.32 31 44 31 C43.525625 30.195625 43.05125 29.39125 42.5625 28.5625 C42 25 42 25 43.28515625 22.80859375 C45.13596904 20.4862363 47.04025079 18.23103681 49 16 C53.20403941 10.80026704 53.74328508 6.49488739 54 0 C54.28617188 0.64453125 54.57234375 1.2890625 54.8671875 1.953125 C55.81418662 4.19884128 55.81418662 4.19884128 58.125 4.75 C58.74375 4.8325 59.3625 4.915 60 5 C60 4.34 60 3.68 60 3 C60.66 3 61.32 3 62 3 C62.84233992 11.76033516 59.70680933 19.94385041 54.3125 26.875 C47.9458433 33.58624379 39.5039754 37.49320997 30.3515625 38.3359375 C22.59693522 38.4172229 16.68249392 38.06883351 10 34 C8.453125 33.13375 8.453125 33.13375 6.875 32.25 C-0.31266321 26.62487227 -5.25859472 19.7674436 -8 11 C-8.12890625 7.6640625 -8.12890625 7.6640625 -8 5 C-5.69 5 -3.38 5 -1 5 C-0.67 3.35 -0.34 1.7 0 0 Z " fill="#428A57" transform="translate(11,36)"/>
<path d="M0 0 C9.25801664 7.58853823 14.32463355 15.61742927 15.6875 27.625 C16.18912749 38.28458415 13.4806788 46.99179126 6.75 55.25 C6.23566406 55.88808594 5.72132812 56.52617188 5.19140625 57.18359375 C-0.37932509 63.39556035 -9.03724539 67.85597518 -17.40234375 68.48828125 C-28.66937421 68.70920342 -37.81889828 67.60269264 -46.6875 59.9375 C-55.58122605 51.18630161 -59.3018772 43.47378197 -59.6875 30.8125 C-59.42131925 19.79927146 -56.02495983 11.12902239 -48.25 3.25 C-34.27200855 -8.82510522 -15.45820647 -10.85931587 0 0 Z M-50 8.125 C-56.88774236 17.69130884 -58.88755349 27.61050196 -57.25 39.25 C-54.64821644 48.48248933 -49.01577188 56.89616933 -40.69140625 61.73828125 C-31.43484112 66.50762903 -22.37201014 67.79442599 -12.09765625 65.56640625 C-2.11015401 62.19054645 4.88485061 56.64923833 9.75 47.25 C14.14087613 37.1455304 15.33370565 28.15079453 11.78125 17.625 C7.92878822 8.75266377 -0.12696885 0.8956989 -8.8125 -3.25 C-24.51967333 -8.74751067 -38.91517261 -3.46368319 -50 8.125 Z " fill="#E7334D" transform="translate(60.25,7.75)"/>
<path d="M0 0 C0 0.99 0 1.98 0 3 C-0.7425 3.268125 -1.485 3.53625 -2.25 3.8125 C-4.91647131 4.96393079 -6.72290417 6.22463715 -9 8 C-9.97259766 8.72896484 -9.97259766 8.72896484 -10.96484375 9.47265625 C-18.74143582 15.74012748 -21.7594454 23.79000271 -25 33 C-27.31 33 -29.62 33 -32 33 C-32.70678075 22.49645279 -30.31993465 15.42657953 -24 7 C-22.3707726 5.29671681 -20.71358643 3.61838719 -19 2 C-18.34 2.33 -17.68 2.66 -17 3 C-18.98 5.31 -20.96 7.62 -23 10 C-19.14061025 9.08947925 -19.14061025 9.08947925 -16 8 C-15.67 7.01 -15.34 6.02 -15 5 C-14.34 5 -13.68 5 -13 5 C-13 4.01 -13 3.02 -13 2 C-12.05125 1.855625 -11.1025 1.71125 -10.125 1.5625 C-1.26020408 -0.03316327 -1.26020408 -0.03316327 0 0 Z " fill="#478856" transform="translate(35,8)"/>
<path d="M0 0 C0.99 0 1.98 0 3 0 C3 0.66 3 1.32 3 2 C4.65 2 6.3 2 8 2 C8.33 1.34 8.66 0.68 9 0 C9 0.66 9 1.32 9 2 C9.99 2 10.98 2 12 2 C12 2.66 12 3.32 12 4 C14.64 4 17.28 4 20 4 C20.33 4.66 20.66 5.32 21 6 C21.66 6 22.32 6 23 6 C23.268125 6.5775 23.53625 7.155 23.8125 7.75 C24.95053246 10.05747896 24.95053246 10.05747896 26.625 12.125 C28 14 28 14 28 16 C29.32 16.33 30.64 16.66 32 17 C31.34 17.66 30.68 18.32 30 19 C30.66 19.33 31.32 19.66 32 20 C32.625 23.0625 32.625 23.0625 33 26 C30.03 26.495 30.03 26.495 27 27 C26.62875 25.824375 26.2575 24.64875 25.875 23.4375 C23.49984977 17.16665944 19.28878994 11.90068446 13.27734375 8.7109375 C8.05331212 7.08010773 2.43432536 7.15074412 -3 7 C-2.01 6.34 -1.02 5.68 0 5 C0.25030977 2.41619823 0.25030977 2.41619823 0 0 Z " fill="#A9C0AE" transform="translate(36,6)"/>
<path d="M0 0 C1.8046875 0.7421875 1.8046875 0.7421875 3.875 1.875 C9.45043193 4.90650862 14.68453227 5.78440523 21 5 C23.49426918 4.07820487 25.79795197 3.01059659 28.15234375 1.77734375 C28.76207031 1.52082031 29.37179688 1.26429687 30 1 C30.66 1.33 31.32 1.66 32 2 C32.67375452 4.088639 33 5.80363095 33 8 C30.29350731 9.69155793 27.9338867 10.2150566 24.8125 10.5625 C21.21809061 10.57461534 21.21809061 10.57461534 20 12 C13.11522064 12.71033438 7.36535283 11.58304173 1 9 C1 8.01 1 7.02 1 6 C0.01 6 -0.98 6 -2 6 C-2 4.35 -2 2.7 -2 1 C-1.34 0.67 -0.68 0.34 0 0 Z " fill="#6C8D6A" transform="translate(22,59)"/>
<path d="M0 0 C5.28 0 10.56 0 16 0 C16 3.96 16 7.92 16 12 C15.01 12 14.02 12 13 12 C13 12.66 13 13.32 13 14 C9.7 14 6.4 14 3 14 C3 13.34 3 12.68 3 12 C2.01 12 1.02 12 0 12 C0 8.04 0 4.08 0 0 Z " fill="#81B455" transform="translate(20,22)"/>
<path d="M0 0 C0 0.99 0 1.98 0 3 C-0.7425 3.268125 -1.485 3.53625 -2.25 3.8125 C-7.96374018 6.2797969 -12.40615944 10.88822913 -17 15 C-17.78375 15.70125 -18.5675 16.4025 -19.375 17.125 C-21.24241649 19.27971134 -22.10304561 21.30913684 -23 24 C-24.65 23.67 -26.3 23.34 -28 23 C-28 22.34 -28 21.68 -28 21 C-27.34 21 -26.68 21 -26 21 C-24.515 15.555 -24.515 15.555 -23 10 C-21.68 9.67 -20.36 9.34 -19 9 C-18.01 8.67 -17.02 8.34 -16 8 C-15.67 7.01 -15.34 6.02 -15 5 C-14.34 5 -13.68 5 -13 5 C-13 4.01 -13 3.02 -13 2 C-12.05125 1.855625 -11.1025 1.71125 -10.125 1.5625 C-1.26020408 -0.03316327 -1.26020408 -0.03316327 0 0 Z " fill="#7B8C6F" transform="translate(35,8)"/>
<path d="M0 0 C0.74958984 0.00451172 1.49917969 0.00902344 2.27148438 0.01367188 C4.11852383 0.02543646 5.96552213 0.04337135 7.8125 0.0625 C7.8125 0.3925 7.8125 0.7225 7.8125 1.0625 C4.8425 1.0625 1.8725 1.0625 -1.1875 1.0625 C-1.5175 3.3725 -1.8475 5.6825 -2.1875 8.0625 C0.4525 8.0625 3.0925 8.0625 5.8125 8.0625 C5.8125 8.3925 5.8125 8.7225 5.8125 9.0625 C0.8625 9.3925 -4.0875 9.7225 -9.1875 10.0625 C-7.8675 8.7425 -6.5475 7.4225 -5.1875 6.0625 C-7.61251634 6.53403095 -9.99857261 7.00852074 -12.375 7.6875 C-14.1875 8.0625 -14.1875 8.0625 -16.1875 7.0625 C-16.1875 8.0525 -16.1875 9.0425 -16.1875 10.0625 C-17.9375 11.66796875 -17.9375 11.66796875 -20.1875 13.25 C-20.93 13.77980469 -21.6725 14.30960938 -22.4375 14.85546875 C-23.015 15.25378906 -23.5925 15.65210938 -24.1875 16.0625 C-24.8475 15.7325 -25.5075 15.4025 -26.1875 15.0625 C-23.07158523 7.69761055 -18.37454371 3.99445298 -11.1875 1.0625 C-7.42449626 -0.19183458 -3.91539091 -0.04445422 0 0 Z " fill="#458A58" transform="translate(38.1875,2.9375)"/>
<path d="M0 0 C2.9375 2.1875 2.9375 2.1875 5 5 C5 7.98791664 4.46812386 9.37583485 2.6875 11.75 C0.66368922 13.2491191 -0.47055285 13.85120899 -3 14 C-5.24356294 12.85213059 -7.2095767 11.7904233 -9 10 C-9.45985401 3.7919708 -9.45985401 3.7919708 -7.875 1.0625 C-5.01486651 -0.55824231 -3.23391331 -0.51742613 0 0 Z M-1 3 C0 5 0 5 0 5 Z " fill="#BAA4E2" transform="translate(54,22)"/>
<path d="M0 0 C0.33 0 0.66 0 1 0 C1.73461747 10.73357744 -0.19176071 18.0717923 -7.25 26.3125 C-11.14077386 30.37520659 -14.96400388 33.50230838 -20 36 C-21.175625 36.598125 -22.35125 37.19625 -23.5625 37.8125 C-31.95236229 40.71413221 -42.11048762 39.92022446 -50.36328125 36.94921875 C-52 36 -52 36 -54 33 C-53.45214844 33.2165625 -52.90429688 33.433125 -52.33984375 33.65625 C-41.8317043 37.34691361 -30.68204421 37.5901722 -20.36328125 33.1875 C-10.91218044 28.43851711 -6.13778674 21.81584933 -2.6875 11.8125 C-1.44512819 7.89666987 -0.60790241 4.06271412 0 0 Z " fill="#E5334C" transform="translate(74,37)"/>
<path d="M0 0 C5.72583038 -0.08719539 11.3740057 -0.16968243 17.0625 0.5625 C20.89741805 1.26700408 20.89741805 1.26700408 24 0 C26.48046875 0.33984375 26.48046875 0.33984375 29.1875 0.9375 C30.08855469 1.13214844 30.98960938 1.32679687 31.91796875 1.52734375 C32.60503906 1.68332031 33.29210938 1.83929688 34 2 C33.67 3.32 33.34 4.64 33 6 C30 6 30 6 27 5 C25.0079697 4.91708047 23.01326287 4.89261823 21.01953125 4.90234375 C19.27446289 4.90717773 19.27446289 4.90717773 17.49414062 4.91210938 C15.67172852 4.92467773 15.67172852 4.92467773 13.8125 4.9375 C11.97268555 4.94426758 11.97268555 4.94426758 10.09570312 4.95117188 C7.06375332 4.96296935 4.03190094 4.97943079 1 5 C0.67 3.35 0.34 1.7 0 0 Z " fill="#C64893" transform="translate(26,37)"/>
<path d="M0 0 C0.99 0 1.98 0 3 0 C5.1875 1 5.1875 1 7 2 C6.6875 4.375 6.6875 4.375 6 7 C2.94669853 9.03553431 2.41134829 9.24129596 -1 9.125 C-1.680625 9.10695313 -2.36125 9.08890625 -3.0625 9.0703125 C-4.0215625 9.03550781 -4.0215625 9.03550781 -5 9 C-5.99 9 -6.98 9 -8 9 C-10.1875 6.5 -10.1875 6.5 -12 4 C-7.58153597 -0.56574616 -6.27780284 -1.15306583 0 0 Z M-7 3 C-7 3.99 -7 4.98 -7 6 C-6.34 5.34 -5.68 4.68 -5 4 C-5.66 3.67 -6.32 3.34 -7 3 Z " fill="#EC9B78" transform="translate(45,48)"/>
<path d="M0 0 C2.44166784 6.83085645 3.41640288 12.7515055 3 20 C2.67 18.68 2.34 17.36 2 16 C1.34 16 0.68 16 0 16 C0 16.66 0 17.32 0 18 C-1.65 17.67 -3.3 17.34 -5 17 C-5.66 19.31 -6.32 21.62 -7 24 C-8.47193312 21.05613377 -7.84936173 18.62609964 -7.5625 15.375 C-7.46066406 14.18648437 -7.35882813 12.99796875 -7.25390625 11.7734375 C-7.17011719 10.85820313 -7.08632813 9.94296875 -7 9 C-5.35 9 -3.7 9 -2 9 C-2.33 7.02 -2.66 5.04 -3 3 C-3.99 2.67 -4.98 2.34 -6 2 C-3 0 -3 0 0 0 Z " fill="#548658" transform="translate(71,23)"/>
<path d="M0 0 C2.60969084 1.57954972 3.34104935 2.61763459 4.375 5.4375 C3.281875 5.251875 2.18875 5.06625 1.0625 4.875 C-2.56124133 4.1796932 -2.56124133 4.1796932 -5.625 5.4375 C-6.35823796 7.45258358 -6.35823796 7.45258358 -6.625 9.4375 C-4.43599414 11.6062189 -4.43599414 11.6062189 -1.625 13.4375 C1.12624253 13.30600174 1.12624253 13.30600174 3.375 12.4375 C2.22326645 14.90550047 1.32716435 16.48533565 -0.625 18.4375 C-4.47552606 18.18673045 -6.30701567 16.07138355 -8.875 13.375 C-9.58140625 12.64152344 -10.2878125 11.90804687 -11.015625 11.15234375 C-11.54671875 10.58644531 -12.0778125 10.02054688 -12.625 9.4375 C-4.13914309 -0.88695923 -4.13914309 -0.88695923 0 0 Z " fill="#9183EA" transform="translate(40.625,43.5625)"/>
<path d="M0 0 C0.99 0 1.98 0 3 0 C3 0.66 3 1.32 3 2 C4.65 2 6.3 2 8 2 C8.33 1.34 8.66 0.68 9 0 C9 0.66 9 1.32 9 2 C9.99 2 10.98 2 12 2 C12 2.66 12 3.32 12 4 C14.64 4 17.28 4 20 4 C20.33 4.66 20.66 5.32 21 6 C21.66 6 22.32 6 23 6 C23.33 7.98 23.66 9.96 24 12 C19.99113032 12 18.28126636 10.20983245 15 8 C11.31558815 6.67526765 7.62752413 6.901597 3.75 6.9375 C1.85507812 6.95103516 1.85507812 6.95103516 -0.078125 6.96484375 C-1.04234375 6.97644531 -2.0065625 6.98804688 -3 7 C-2.01 6.34 -1.02 5.68 0 5 C0.25030977 2.41619823 0.25030977 2.41619823 0 0 Z " fill="#93BEA5" transform="translate(36,6)"/>
<path d="M0 0 C0.54269531 0.27714844 1.08539062 0.55429687 1.64453125 0.83984375 C2.71767578 1.38318359 2.71767578 1.38318359 3.8125 1.9375 C4.87404297 2.47697266 4.87404297 2.47697266 5.95703125 3.02734375 C9.16201599 4.55323515 11.67979266 5.1200034 15.1875 5.0625 C16.445625 5.041875 17.70375 5.02125 19 5 C19 6.65 19 8.3 19 10 C12.66606918 10.34548714 7.89738492 9.29342747 2 7 C2 6.01 2 5.02 2 4 C1.01 4 0.02 4 -1 4 C-0.67 2.68 -0.34 1.36 0 0 Z " fill="#A6C8B5" transform="translate(21,61)"/>
<path d="M0 0 C5.28 0 10.56 0 16 0 C16 3.96 16 7.92 16 12 C15.01 12 14.02 12 13 12 C13 12.66 13 13.32 13 14 C9.7 14 6.4 14 3 14 C3 13.34 3 12.68 3 12 C2.01 12 1.02 12 0 12 C0 8.04 0 4.08 0 0 Z M1 1 C1 3.97 1 6.94 1 10 C5.62 10 10.24 10 15 10 C15 7.03 15 4.06 15 1 C10.38 1 5.76 1 1 1 Z " fill="#80929E" transform="translate(20,22)"/>
<path d="M0 0 C2.60845923 2.60845923 2.35780384 3.8621047 2.4375 7.5 C2.28468987 15.00567402 0.16144515 20.56447795 -4.9375 26.10546875 C-9.21596407 30.0354973 -13.00253387 33 -19 33 C-19 32.34 -19 31.68 -19 31 C-17.824375 30.649375 -16.64875 30.29875 -15.4375 29.9375 C-9.49367629 27.65465089 -5.61409726 24.1091608 -2.67578125 18.44921875 C-0.16656942 12.22461256 0.52071377 6.66802912 0 0 Z " fill="#FBDBE1" transform="translate(62,31)"/>
<path d="M0 0 C3.96 0 7.92 0 12 0 C11.75 2.875 11.75 2.875 11 6 C8.14088761 8.16898181 6.71556422 8 3 8 C3 7.34 3 6.68 3 6 C2.2886792 6.03552979 1.5773584 6.07105957 0.84448242 6.10766602 C-2.37425588 6.26514574 -5.59333897 6.41392334 -8.8125 6.5625 C-9.93205078 6.61857422 -11.05160156 6.67464844 -12.20507812 6.73242188 C-13.81479492 6.80493164 -13.81479492 6.80493164 -15.45703125 6.87890625 C-16.9416687 6.94960327 -16.9416687 6.94960327 -18.45629883 7.02172852 C-21 7 -21 7 -24 6 C-23.67 5.01 -23.34 4.02 -23 3 C-23 3.66 -23 4.32 -23 5 C-22.01 4.67 -21.02 4.34 -20 4 C-18.15389468 3.91760831 -16.30494836 3.89256641 -14.45703125 3.90234375 C-13.38388672 3.90556641 -12.31074219 3.90878906 -11.20507812 3.91210938 C-10.08552734 3.92048828 -8.96597656 3.92886719 -7.8125 3.9375 C-6.11577148 3.94426758 -6.11577148 3.94426758 -4.38476562 3.95117188 C-1.58979073 3.96296502 1.2050782 3.9794235 4 4 C4 4.66 4 5.32 4 6 C5.32 5.01 6.64 4.02 8 3 C8.495 3.99 8.495 3.99 9 5 C9.33 4.01 9.66 3.02 10 2 C8.906875 2.04125 7.81375 2.0825 6.6875 2.125 C3 2 3 2 0 0 Z " fill="#D8CEF3" transform="translate(50,37)"/>
<path d="M0 0 C4.07655174 -0.47401764 5.58343751 -0.31020611 8.9375 2.1875 C11 5 11 5 10.9375 7.6875 C10 10 10 10 8 12 C7.814375 11.4225 7.62875 10.845 7.4375 10.25 C5.29448878 6.89572157 2.51177437 5.82092004 -1 4 C-0.67 2.68 -0.34 1.36 0 0 Z M5 3 C6 5 6 5 6 5 Z " fill="#CE8ED2" transform="translate(48,22)"/>
<path d="M0 0 C0.66 0 1.32 0 2 0 C1.57815409 4.49968972 -0.39236738 7.4699908 -2.84375 11.1328125 C-4.16172777 13.10083909 -4.16172777 13.10083909 -5 16 C-6.65 15.67 -8.3 15.34 -10 15 C-10 14.34 -10 13.68 -10 13 C-9.34 13 -8.68 13 -8 13 C-7.01 9.37 -6.02 5.74 -5 2 C-3.68 1.67 -2.36 1.34 -1 1 C-0.67 0.67 -0.34 0.34 0 0 Z " fill="#8DBB9F" transform="translate(17,16)"/>
<path d="M0 0 C3 1 3 1 4.32421875 3.4765625 C4.77410156 4.51554687 5.22398437 5.55453125 5.6875 6.625 C8.52963818 12.6084488 11.77213169 16.06732429 17 20 C19 22 19 22 19 24 C11.97642587 20.79324566 5.59426079 14.86838499 2 8 C1.10130401 5.32743811 0.53641604 2.77961039 0 0 Z " fill="#E03C52" transform="translate(2,48)"/>
<path d="M0 0 C0.66 0.33 1.32 0.66 2 1 C2 2.98 2 4.96 2 7 C2.33 6.67 2.66 6.34 3 6 C3.99 6 4.98 6 6 6 C6 6.99 6 7.98 6 9 C6.99 9.33 7.98 9.66 9 10 C5.33333333 10 1.66666667 10 -2 10 C-4.1875 7.5 -4.1875 7.5 -6 5 C-2.25 1.125 -2.25 1.125 0 0 Z M-1 4 C-1 4.99 -1 5.98 -1 7 C-0.34 6.34 0.32 5.68 1 5 C0.34 4.67 -0.32 4.34 -1 4 Z " fill="#EAC4A4" transform="translate(39,47)"/>
<path d="M0 0 C0 1.32 0 2.64 0 4 C-2.68452027 5.67782517 -5.02917241 6.2135158 -8.125 6.5625 C-11.78900424 6.75115044 -11.78900424 6.75115044 -14 8 C-13.67 6.35 -13.34 4.7 -13 3 C-12.34 3.33 -11.68 3.66 -11 4 C-10.67 3.34 -10.34 2.68 -10 2 C-3.6 -1.2 -3.6 -1.2 0 0 Z " fill="#8FBCA1" transform="translate(55,63)"/>
<path d="M0 0 C1.6254308 0.14095064 3.25034051 0.28792087 4.875 0.4375 C5.77992187 0.51871094 6.68484375 0.59992187 7.6171875 0.68359375 C10 1 10 1 12 2 C11.67 3.32 11.34 4.64 11 6 C8 6 8 6 5 5 C3.60560336 4.93334624 2.20830125 4.91461801 0.8125 4.9375 C-0.445625 4.958125 -1.70375 4.97875 -3 5 C-2.67 4.01 -2.34 3.02 -2 2 C-1.34 2 -0.68 2 0 2 C0 1.34 0 0.68 0 0 Z " fill="#C33A89" transform="translate(48,37)"/>
<path d="M0 0 C0.99 0 1.98 0 3 0 C3 0.66 3 1.32 3 2 C4.65 2 6.3 2 8 2 C8.33 1.34 8.66 0.68 9 0 C10 3 10 3 9 7 C5.04 7 1.08 7 -3 7 C-2.01 6.34 -1.02 5.68 0 5 C0.25030977 2.41619823 0.25030977 2.41619823 0 0 Z " fill="#97B19B" transform="translate(36,6)"/>
<path d="M0 0 C7.60302381 2.88914905 12.9031207 6.75167508 17 14 C17 14.99 17 15.98 17 17 C16.34 17 15.68 17 15 17 C14.46375 15.948125 13.9275 14.89625 13.375 13.8125 C10.58153639 8.92640641 6.9863303 6.16588952 2.125 3.3125 C1.42375 2.879375 0.7225 2.44625 0 2 C0 1.34 0 0.68 0 0 Z " fill="#64845F" transform="translate(47,12)"/>
<path d="M0 0 C0 2.31 0 4.62 0 7 C-2.31 7 -4.62 7 -7 7 C-7.33 5.68 -7.66 4.36 -8 3 C-3.375 0 -3.375 0 0 0 Z " fill="#9ACC62" transform="translate(34,24)"/>
<path d="M0 0 C2.79651501 1.46817038 3.43411431 2.40553901 4.5 5.3125 C3.38625 5.126875 2.2725 4.94125 1.125 4.75 C-2.32568861 3.99569343 -2.32568861 3.99569343 -4.5 5.3125 C-5.16 4.9825 -5.82 4.6525 -6.5 4.3125 C-4.04949785 -1.11361191 -4.04949785 -1.11361191 0 0 Z " fill="#73B9EB" transform="translate(40.5,43.6875)"/>
<path d="M0 0 C6.81901084 6.28568038 6.61614191 15.31686527 7 24 C6.67 24 6.34 24 6 24 C5.73445313 22.89140625 5.46890625 21.7828125 5.1953125 20.640625 C4.83879379 19.17702189 4.48200897 17.71348359 4.125 16.25 C3.95097656 15.52039062 3.77695313 14.79078125 3.59765625 14.0390625 C2.87781626 11.10638108 2.22173019 8.44346037 0.8671875 5.734375 C0 4 0 4 0 0 Z " fill="#F0435E" transform="translate(69,18)"/>
<path d="M0 0 C3.875 1.75 3.875 1.75 5 4 C7.52733235 4.65555119 7.52733235 4.65555119 10 5 C9.01 5.99 8.02 6.98 7 8 C1.125 6.125 1.125 6.125 0 5 C-0.04063832 3.33382885 -0.042721 1.66611905 0 0 Z " fill="#86A3E8" transform="translate(46,28)"/>
<path d="M0 0 C3.96 0 7.92 0 12 0 C11.75 2.875 11.75 2.875 11 6 C8.9375 7.375 8.9375 7.375 7 8 C6.01 7.34 5.02 6.68 4 6 C5.32 5.01 6.64 4.02 8 3 C8.33 3.66 8.66 4.32 9 5 C9.33 4.01 9.66 3.02 10 2 C8.3603125 2.061875 8.3603125 2.061875 6.6875 2.125 C3 2 3 2 0 0 Z " fill="#D8BCE5" transform="translate(50,37)"/>
<path d="M0 0 C4.62 0 9.24 0 14 0 C13.01 0.66 12.02 1.32 11 2 C11.33 2.66 11.66 3.32 12 4 C8.7 4 5.4 4 2 4 C2.33 3.34 2.66 2.68 3 2 C2.01 1.34 1.02 0.68 0 0 Z " fill="#5E767C" transform="translate(21,32)"/>
<path d="M0 0 C-1.15173355 2.46800047 -2.04783565 4.04783565 -4 6 C-6.125 5.625 -6.125 5.625 -8 5 C-8.33 3.68 -8.66 2.36 -9 1 C-5.846632 0.29925156 -3.27275026 0 0 0 Z " fill="#9A76EA" transform="translate(44,56)"/>
<path d="M0 0 C1.32 0 2.64 0 4 0 C4 1.98 4 3.96 4 6 C2.02 6 0.04 6 -2 6 C-1.125 1.125 -1.125 1.125 0 0 Z " fill="#A1AD44" transform="translate(6,35)"/>
<path d="M0 0 C0.66 0.66 1.32 1.32 2 2 C1.525625 2.7425 1.05125 3.485 0.5625 4.25 C-0.77869327 6.61050015 -1.512312 8.36648477 -2 11 C-2.66 11 -3.32 11 -4 11 C-4 13.97 -4 16.94 -4 20 C-4.33 20 -4.66 20 -5 20 C-5.76258253 12.03524914 -4.07063514 6.83285184 0 0 Z " fill="#EDC4C8" transform="translate(17,23)"/>
<path d="M0 0 C1.32 0.33 2.64 0.66 4 1 C3.67 2.65 3.34 4.3 3 6 C2.01 6.33 1.02 6.66 0 7 C0 6.34 0 5.68 0 5 C-0.66 5 -1.32 5 -2 5 C-2 4.34 -2 3.68 -2 3 C-3.32 2.67 -4.64 2.34 -6 2 C-4.02 2 -2.04 2 0 2 C0 1.34 0 0.68 0 0 Z " fill="#ECA2A0" transform="translate(48,49)"/>
<path d="M0 0 C0.66 0.33 1.32 0.66 2 1 C2 2.98 2 4.96 2 7 C1.34 6.67 0.68 6.34 0 6 C-1.32860925 5.64830932 -2.66158328 5.31229724 -4 5 C-4.33 5.66 -4.66 6.32 -5 7 C-5 4 -5 4 -3.625 2.375 C-2 1 -2 1 0 0 Z " fill="#F0D0AE" transform="translate(39,47)"/>
<path d="M0 0 C0.99 0 1.98 0 3 0 C3.66 1.32 4.32 2.64 5 4 C3.329375 4.2165625 3.329375 4.2165625 1.625 4.4375 C-1.82142047 4.78372035 -1.82142047 4.78372035 -4 6 C-3.67 4.35 -3.34 2.7 -3 1 C-2.34 1.33 -1.68 1.66 -1 2 C-0.67 1.34 -0.34 0.68 0 0 Z " fill="#B7D2C4" transform="translate(45,65)"/>
<path d="M0 0 C0 0.99 0 1.98 0 3 C-2.97 3.66 -5.94 4.32 -9 5 C-6.40100021 -0.19799959 -5.44050551 -0.1431712 0 0 Z " fill="#9AC2AB" transform="translate(35,8)"/>
<path d="M0 0 C1.65 0 3.3 0 5 0 C5 1.65 5 3.3 5 5 C3.02 5 1.04 5 -1 5 C-0.67 3.35 -0.34 1.7 0 0 Z " fill="#C74690" transform="translate(19,37)"/>
<path d="M0 0 C5.875 0.875 5.875 0.875 7 2 C7.04063832 3.66617115 7.042721 5.33388095 7 7 C6.01 6.01 5.02 5.02 4 4 C3.01 4.495 3.01 4.495 2 5 C2 4.34 2 3.68 2 3 C1.34 3 0.68 3 0 3 C0 2.01 0 1.02 0 0 Z " fill="#E06C9A" transform="translate(50,22)"/>
<path d="M0 0 C-1 3 -1 3 -3.625 4.6875 C-7.32948098 6.12813149 -10.06093765 6.23634374 -14 6 C-13.42507812 5.71382813 -12.85015625 5.42765625 -12.2578125 5.1328125 C-10.8108611 4.40683342 -9.36774192 3.6731345 -7.9296875 2.9296875 C-7.25164063 2.58164063 -6.57359375 2.23359375 -5.875 1.875 C-5.19179688 1.52179688 -4.50859375 1.16859375 -3.8046875 0.8046875 C-2 0 -2 0 0 0 Z " fill="#DA2C42" transform="translate(59,68)"/>
<path d="M0 0 C2.64 0 5.28 0 8 0 C7.34 1.32 6.68 2.64 6 4 C3.03 4 0.06 4 -3 4 C-3 3.67 -3 3.34 -3 3 C-1.35 2.67 0.3 2.34 2 2 C1.34 1.34 0.68 0.68 0 0 Z " fill="#C35FA9" transform="translate(39,38)"/>
<path d="M0 0 C1.37562854 1.28965176 2.70766393 2.62689293 4 4 C4 4.66 4 5.32 4 6 C4.66 6.33 5.32 6.66 6 7 C5.01 7 4.02 7 3 7 C2.67 7.66 2.34 8.32 2 9 C-1.07692308 4.56923077 -1.07692308 4.56923077 -0.6875 1.6875 C-0.460625 1.130625 -0.23375 0.57375 0 0 Z " fill="#88B89B" transform="translate(60,16)"/>
<path d="M0 0 C0.66 0 1.32 0 2 0 C2.33 1.65 2.66 3.3 3 5 C1.35 5.66 -0.3 6.32 -2 7 C-2 5.68 -2 4.36 -2 3 C-1.34 3 -0.68 3 0 3 C0 2.01 0 1.02 0 0 Z " fill="#98C1AA" transform="translate(22,10)"/>
<path d="M0 0 C4.00458831 0.61609051 6.83019669 2.55060653 10 5 C10 5.99 10 6.98 10 8 C6.05205855 6.32971708 3.18203882 3.8204435 0 1 C0 0.67 0 0.34 0 0 Z " fill="#E84058" transform="translate(11,64)"/>
<path d="M0 0 C0.66 0 1.32 0 2 0 C2 0.99 2 1.98 2 3 C2.66 3 3.32 3 4 3 C4 3.66 4 4.32 4 5 C4.66 5 5.32 5 6 5 C6 5.66 6 6.32 6 7 C1.25 5.125 1.25 5.125 -1 4 C-0.67 2.68 -0.34 1.36 0 0 Z " fill="#CE7FC9" transform="translate(48,22)"/>
<path d="M0 0 C0.66 0 1.32 0 2 0 C2 0.66 2 1.32 2 2 C2.99 2 3.98 2 5 2 C5 2.99 5 3.98 5 5 C3.02 5 1.04 5 -1 5 C-0.67 3.35 -0.34 1.7 0 0 Z " fill="#9EC3AE" transform="translate(46,8)"/>
<path d="M0 0 C2.375 -0.1875 2.375 -0.1875 5 0 C5.66 0.99 6.32 1.98 7 3 C6.01 4.485 6.01 4.485 5 6 C3.35 4.02 1.7 2.04 0 0 Z " fill="#B188E9" transform="translate(30,54)"/>
<path d="M0 0 C1.9375 0.375 1.9375 0.375 4 1 C4.33 1.66 4.66 2.32 5 3 C4.67 3.66 4.34 4.32 4 5 C2.68 5 1.36 5 0 5 C0 3.35 0 1.7 0 0 Z " fill="#CAB739" transform="translate(67,36)"/>
<path d="M0 0 C5.07865169 1.26966292 5.07865169 1.26966292 7 4 C6.67 5.32 6.34 6.64 6 8 C4.02 5.36 2.04 2.72 0 0 Z " fill="#D8374B" transform="translate(62,12)"/>
<path d="M0 0 C2 3 2 3 2 6 C1.01 6.33 0.02 6.66 -1 7 C-1.66 6.34 -2.32 5.68 -3 5 C-2.01 3.35 -1.02 1.7 0 0 Z " fill="#7BB190" transform="translate(67,26)"/>
</svg>
